/* XPM */
static char *zero_xpm[] = {
  "16 30 85 1",
  " 	c #FFFFFF",
  ".	c #F6F6F6",
  "+	c #919191",
  "@	c #404040",
  "#	c #181818",
  "$	c #060606",
  "%	c #171717",
  "&	c #3E3E3E",
  "*	c #929292",
  "=	c #F7F7F7",
  "-	c #D3D3D3",
  ";	c #222222",
  ">	c #000000",
  ",	c #272727",
  "'	c #D7D7D7",
  ")	c #E6E6E6",
  "!	c #191919",
  "~	c #1E1E1E",
  "{	c #E9E9E9",
  "]	c #636363",
  "^	c #1B1B1B",
  "/	c #4E4E4E",
  "(	c #646464",
  "_	c #EFEFEF",
  ":	c #050505",
  "<	c #414141",
  "[	c #F8F8F8",
  "}	c #FCFCFC",
  "|	c #535353",
  "1	c #020202",
  "2	c #A4A4A4",
  "3	c #CDCDCD",
  "4	c #E3E3E3",
  "5	c #939393",
  "6	c #6D6D6D",
  "7	c #323232",
  "8	c #545454",
  "9	c #444444",
  "0	c #5E5E5E",
  "a	c #292929",
  "b	c #2A2A2A",
  "c	c #595959",
  "d	c #777777",
  "e	c #0A0A0A",
  "f	c #656565",
  "g	c #848484",
  "h	c #161616",
  "i	c #6A6A6A",
  "j	c #898989",
  "k	c #F3F3F3",
  "l	c #1F1F1F",
  "m	c #666666",
  "n	c #FBFBFB",
  "o	c #2C2C2C",
  "p	c #5B5B5B",
  "q	c #787878",
  "r	c #070707",
  "s	c #484848",
  "t	c #606060",
  "u	c #737373",
  "v	c #343434",
  "w	c #4B4B4B",
  "x	c #AFAFAF",
  "y	c #D5D5D5",
  "z	c #E7E7E7",
  "A	c #030303",
  "B	c #828282",
  "C	c #0C0C0C",
  "D	c #494949",
  "E	c #FAFAFA",
  "F	c #FDFDFD",
  "G	c #5A5A5A",
  "H	c #797979",
  "I	c #202020",
  "J	c #F2F2F2",
  "K	c #282828",
  "L	c #E2E2E2",
  "M	c #303030",
  "N	c #BFBFBF",
  "O	c #9B9B9B",
  "P	c #454545",
  "Q	c #151515",
  "R	c #383838",
  "S	c #858585",
  "T	c #EEEEEE",
  "                ",
  "                ",
  "                ",
  "                ",
  "   .+@#$%&*=    ",
  "  -;>>>>>>>,'   ",
  " )!>>>>>>>>>~{  ",
  " ]>>>>^/;>>>>(  ",
  "_:>>><[ }|>>>1) ",
  "2>>>>3   41>>>5 ",
  "6>>>%     7>>>8 ",
  "9>>><     0>>>a ",
  "b>>>c     d>>>e ",
  "~>>>f     g>>>>}",
  "h>>>i     j>>>>k",
  "l>>>m     g>>>>n",
  "o>>>p     q>>>r ",
  "s>>>9     t>>>; ",
  "u>>>^     v>>>w ",
  "x>>>>y   zA>>>B ",
  ".C>>>DE FG>>>>- ",
  " H>>>>I|,>>>>9  ",
  " JK>>>>>>>>>C-  ",
  "  LM>>>>>>>hN   ",
  "   nOP#:QRST    ",
  "                ",
  "                ",
  "                ",
  "                ",
  "                "};
