/* XPM */
static char *one_xpm[] = {
  "12 30 26 1",
  " 	c #FFFFFF",
  ".	c #DBDBDB",
  "+	c #2D2D2D",
  "@	c #000000",
  "#	c #9B9B9B",
  "$	c #B3B3B3",
  "%	c #0F0F0F",
  "&	c #FDFDFD",
  "*	c #7D7D7D",
  "=	c #010101",
  "-	c #EDEDED",
  ";	c #484848",
  ">	c #212121",
  ",	c #070707",
  "'	c #0D0D0D",
  ")	c #B2B2B2",
  "!	c #232323",
  "~	c #D2D2D2",
  "{	c #EBEBEB",
  "]	c #6F6F6F",
  "^	c #4B4B4B",
  "/	c #EFEFEF",
  "(	c #E3E3E3",
  "_	c #FCFCFC",
  ":	c #FEFEFE",
  "<	c #DEDEDE",
  "            ",
  "            ",
  "            ",
  "            ",
  "    .+@@@#  ",
  "   $%@@@@#  ",
  " &*=@@@@@#  ",
  "-;@@@@@@@#  ",
  ">@@@,@@@@#  ",
  "@@@')@@@@#  ",
  "@@!~{@@@@#  ",
  "]^/ (@@@@#  ",
  "_:  <@@@@#  ",
  "    .@@@@#  ",
  "    .@@@@#  ",
  "    .@@@@#  ",
  "    .@@@@#  ",
  "    .@@@@#  ",
  "    .@@@@#  ",
  "    .@@@@#  ",
  "    .@@@@#  ",
  "    .@@@@#  ",
  "    .@@@@#  ",
  "    .@@@@#  ",
  "    .@@@@#  ",
  "            ",
  "            ",
  "            ",
  "            ",
  "            "};
