/* XPM */
static char *two_xpm[] = {
  "16 30 64 1",
  " 	c #FFFFFF",
  ".	c #D2D2D2",
  "+	c #767676",
  "@	c #373737",
  "#	c #121212",
  "$	c #040404",
  "%	c #111111",
  "&	c #2C2C2C",
  "*	c #727272",
  "=	c #D3D3D3",
  "-	c #E7E7E7",
  ";	c #555555",
  ">	c #000000",
  ",	c #7B7B7B",
  "'	c #C2C2C2",
  ")	c #171717",
  "!	c #818181",
  "~	c #838383",
  "{	c #181818",
  "]	c #2F2F2F",
  "^	c #0F0F0F",
  "/	c #060606",
  "(	c #E5E5E5",
  "_	c #5D5D5D",
  ":	c #535353",
  "<	c #CDCDCD",
  "[	c #F7F7F7",
  "}	c #636363",
  "|	c #959595",
  "1	c #F9F9F9",
  "2	c #4E4E4E",
  "3	c #B0B0B0",
  "4	c #F2F2F2",
  "5	c #010101",
  "6	c #757575",
  "7	c #0A0A0A",
  "8	c #D6D6D6",
  "9	c #B3B3B3",
  "0	c #A7A7A7",
  "a	c #999999",
  "b	c #BABABA",
  "c	c #070707",
  "d	c #4F4F4F",
  "e	c #BBBBBB",
  "f	c #090909",
  "g	c #363636",
  "h	c #F3F3F3",
  "i	c #B7B7B7",
  "j	c #080808",
  "k	c #393939",
  "l	c #F0F0F0",
  "m	c #484848",
  "n	c #F4F4F4",
  "o	c #A8A8A8",
  "p	c #626262",
  "q	c #FBFBFB",
  "r	c #A0A0A0",
  "s	c #030303",
  "t	c #979797",
  "u	c #020202",
  "v	c #969696",
  "w	c #929292",
  "x	c #DCDCDC",
  "y	c #333333",
  "                ",
  "                ",
  "                ",
  "                ",
  "   .+@#$%&*=    ",
  " -;>>>>>>>>$,   ",
  "')>>>>>>>>>>>!  ",
  "~>>>>>{]^>>>>/( ",
  " _>>:<  [}>>>>| ",
  " 123     45>>>6 ",
  "          7>>>! ",
  "         8>>>>9 ",
  "         _>>>{[ ",
  "        0>>>>a  ",
  "       bc>>>d   ",
  "      ef>>>gh   ",
  "     ij>>>kl    ",
  "    3/>>>mn     ",
  "   o$>>>pq      ",
  "  rs>>>,        ",
  " t5>>uv         ",
  "w>>>>c]]]]]]]]]x",
  "y>>>>>>>>>>>>>>=",
  "y>>>>>>>>>>>>>>=",
  "y>>>>>>>>>>>>>>=",
  "                ",
  "                ",
  "                ",
  "                ",
  "                "};
