/* XPM */
static char *three_xpm[] = {
  "15 30 82 1",
  " 	c #FFFFFF",
  ".	c #DEDEDE",
  "+	c #848484",
  "@	c #494949",
  "#	c #1D1D1D",
  "$	c #0B0B0B",
  "%	c #050505",
  "&	c #141414",
  "*	c #393939",
  "=	c #787878",
  "-	c #D8D8D8",
  ";	c #DFDFDF",
  ">	c #525252",
  ",	c #010101",
  "'	c #000000",
  ")	c #030303",
  "!	c #777777",
  "~	c #FDFDFD",
  "{	c #727272",
  "]	c #F5F5F5",
  "^	c #252525",
  "/	c #2E2E2E",
  "(	c #4F4F4F",
  "_	c #444444",
  ":	c #121212",
  "<	c #060606",
  "[	c #ECECEC",
  "}	c #C4C4C4",
  "|	c #E4E4E4",
  "1	c #F4F4F4",
  "2	c #4C4C4C",
  "3	c #B8B8B8",
  "4	c #F1F1F1",
  "5	c #C8C8C8",
  "6	c #B0B0B0",
  "7	c #D7D7D7",
  "8	c #878787",
  "9	c #363636",
  "0	c #FCFCFC",
  "a	c #EDEDED",
  "b	c #C5C5C5",
  "c	c #6F6F6F",
  "d	c #151515",
  "e	c #D3D3D3",
  "f	c #3E3E3E",
  "g	c #E1E1E1",
  "h	c #0C0C0C",
  "i	c #E9E9E9",
  "j	c #DBDBDB",
  "k	c #BCBCBC",
  "l	c #797979",
  "m	c #5E5E5E",
  "n	c #272727",
  "o	c #111111",
  "p	c #D9D9D9",
  "q	c #A7A7A7",
  "r	c #535353",
  "s	c #2B2B2B",
  "t	c #161616",
  "u	c #FEFEFE",
  "v	c #191919",
  "w	c #7F7F7F",
  "x	c #F9F9F9",
  "y	c #757575",
  "z	c #3B3B3B",
  "A	c #232323",
  "B	c #626262",
  "C	c #616161",
  "D	c #9A9A9A",
  "E	c #4A4A4A",
  "F	c #2C2C2C",
  "G	c #747474",
  "H	c #FAFAFA",
  "I	c #F7F7F7",
  "J	c #ACACAC",
  "K	c #6A6A6A",
  "L	c #181818",
  "M	c #080808",
  "N	c #0E0E0E",
  "O	c #4D4D4D",
  "P	c #8D8D8D",
  "Q	c #E3E3E3",
  "               ",
  "               ",
  "               ",
  "               ",
  "  .+@#$%&*=-   ",
  ";>,'''''''')!~ ",
  "{''''''''''''= ",
  "]^'',/(_:''''<[",
  " }$=|   12''''3",
  "  4      5''''6",
  "         -''''7",
  "         8'''9 ",
  "     0abc)''de ",
  "   c'''''''fg  ",
  "   c'''''h+i   ",
  "   c''''''',2j ",
  "   k8+lmn''''op",
  "         q''''r",
  "          s'''t",
  "         uv'''&",
  "_w.     xy''''z",
  "A',A(BC@o'''''D",
  "A''''''''''''Eu",
  "F''''''''''<GH ",
  "IJK*LM)NAOPQ   ",
  "               ",
  "               ",
  "               ",
  "               ",
  "               "};
