/* XPM */
static char *four_xpm[] = {
  "17 30 44 1",
  " 	c #FFFFFF",
  ".	c #8D8D8D",
  "+	c #000000",
  "@	c #EBEBEB",
  "#	c #D2D2D2",
  "$	c #070707",
  "%	c #F8F8F8",
  "&	c #2D2D2D",
  "*	c #717171",
  "=	c #BCBCBC",
  "-	c #010101",
  ";	c #EEEEEE",
  ">	c #1B1B1B",
  ",	c #414141",
  "'	c #565656",
  ")	c #181818",
  "!	c #B1B1B1",
  "~	c #A1A1A1",
  "{	c #A7A7A7",
  "]	c #B4B4B4",
  "^	c #DFDFDF",
  "/	c #0E0E0E",
  "(	c #585858",
  "_	c #ACACAC",
  ":	c #FDFDFD",
  "<	c #3D3D3D",
  "[	c #1C1C1C",
  "}	c #EFEFEF",
  "|	c #A8A8A8",
  "1	c #858585",
  "2	c #BDBDBD",
  "3	c #CCCCCC",
  "4	c #050505",
  "5	c #737373",
  "6	c #F6F6F6",
  "7	c #282828",
  "8	c #8F8F8F",
  "9	c #575757",
  "0	c #838383",
  "a	c #C0C0C0",
  "b	c #7B7B7B",
  "c	c #515151",
  "d	c #727272",
  "e	c #A9A9A9",
  "                 ",
  "                 ",
  "                 ",
  "                 ",
  "         .++++@  ",
  "        #$++++@  ",
  "       %&+++++@  ",
  "       *++++++@  ",
  "      =-++++++@  ",
  "     ;>++,++++@  ",
  "     '++)!++++@  ",
  "    ~+++{]++++@  ",
  "   ^/++( _++++@  ",
  "  :<++[} |++++@  ",
  "  1++-2  {++++@  ",
  " 34++5   {++++@  ",
  "67++&%   {++++@  ",
  "8+++++++++++++++9",
  "0+++++++++++++++9",
  "0+++++++++++++++9",
  "abbbbbbbbc++++dbe",
  "         {++++@  ",
  "         {++++@  ",
  "         {++++@  ",
  "         {++++@  ",
  "                 ",
  "                 ",
  "                 ",
  "                 ",
  "                 "};
