/* XPM */
static char *five_xpm[] = {
  "15 30 73 1",
  " 	c #FFFFFF",
  ".	c #A8A8A8",
  "+	c #000000",
  "@	c #AFAFAF",
  "#	c #949494",
  "$	c #808080",
  "%	c #6B6B6B",
  "&	c #0D0D0D",
  "*	c #272727",
  "=	c #BCBCBC",
  "-	c #575757",
  ";	c #676767",
  ">	c #424242",
  ",	c #858585",
  "'	c #2E2E2E",
  ")	c #A3A3A3",
  "!	c #191919",
  "~	c #2B2B2B",
  "{	c #181818",
  "]	c #050505",
  "^	c #090909",
  "/	c #232323",
  "(	c #5F5F5F",
  "_	c #C7C7C7",
  ":	c #060606",
  "<	c #6A6A6A",
  "[	c #FCFCFC",
  "}	c #F0F0F0",
  "|	c #727272",
  "1	c #FAFAFA",
  "2	c #7E7E7E",
  "3	c #0C0C0C",
  "4	c #0E0E0E",
  "5	c #353535",
  "6	c #4D4D4D",
  "7	c #4F4F4F",
  "8	c #303030",
  "9	c #010101",
  "0	c #020202",
  "a	c #D7D7D7",
  "b	c #F3F3F3",
  "c	c #FDFDFD",
  "d	c #DDDDDD",
  "e	c #393939",
  "f	c #7F7F7F",
  "g	c #E6E6E6",
  "h	c #040404",
  "i	c #4E4E4E",
  "j	c #2D2D2D",
  "k	c #3D3D3D",
  "l	c #292929",
  "m	c #4C4C4C",
  "n	c #FEFEFE",
  "o	c #DFDFDF",
  "p	c #717171",
  "q	c #626262",
  "r	c #BBBBBB",
  "s	c #F9F9F9",
  "t	c #DBDBDB",
  "u	c #343434",
  "v	c #BABABA",
  "w	c #777777",
  "x	c #070707",
  "y	c #313131",
  "z	c #494949",
  "A	c #141414",
  "B	c #D9D9D9",
  "C	c #383838",
  "D	c #DADADA",
  "E	c #B8B8B8",
  "F	c #373737",
  "G	c #151515",
  "H	c #131313",
  "               ",
  "               ",
  "               ",
  "               ",
  " .+++++++++++@ ",
  " #+++++++++++@ ",
  " $+++++++++++@ ",
  " %+++&*******= ",
  " -+++;         ",
  " >+++,         ",
  " '+++)         ",
  " !+++~{]^/(_   ",
  " :++++++++++<[ ",
  "}++++++++++++| ",
  "123456789++++0a",
  "  bc    de++++f",
  "         gh+++i",
  "          j+++k",
  "          l+++m",
  "n        o0+++p",
  "fqrs    tu++++v",
  "w++xyzi89++++un",
  "w+++++++++++AB ",
  "f++++++++++CD  ",
  "nE%FGxhHy;=    ",
  "               ",
  "               ",
  "               ",
  "               ",
  "               "};
