/* XPM */
static char *six_xpm[] = {
  "16 30 90 1",
  " 	c #FFFFFF",
  ".	c #F5F5F5",
  "+	c #A4A4A4",
  "@	c #626262",
  "#	c #2D2D2D",
  "$	c #181818",
  "%	c #060606",
  "&	c #131313",
  "*	c #757575",
  "=	c #FEFEFE",
  "-	c #909090",
  ";	c #161616",
  ">	c #000000",
  ",	c #575757",
  "'	c #F7F7F7",
  ")	c #545454",
  "!	c #606060",
  "~	c #010101",
  "{	c #303030",
  "]	c #696969",
  "^	c #6D6D6D",
  "/	c #585858",
  "(	c #7B7B7B",
  "_	c #B2B2B2",
  ":	c #030303",
  "<	c #6F6F6F",
  "[	c #E9E9E9",
  "}	c #393939",
  "|	c #9A9A9A",
  "1	c #D4D4D4",
  "2	c #3B3B3B",
  "3	c #929292",
  "4	c #888888",
  "5	c #FBFBFB",
  "6	c #343434",
  "7	c #0F0F0F",
  "8	c #0A0A0A",
  "9	c #272727",
  "0	c #E3E3E3",
  "a	c #5D5D5D",
  "b	c #AAAAAA",
  "c	c #3E3E3E",
  "d	c #0D0D0D",
  "e	c #BBBBBB",
  "f	c #363636",
  "g	c #E0E0E0",
  "h	c #262626",
  "i	c #383838",
  "j	c #767676",
  "k	c #6B6B6B",
  "l	c #1E1E1E",
  "m	c #171717",
  "n	c #8E8E8E",
  "o	c #F0F0F0",
  "p	c #282828",
  "q	c #1A1A1A",
  "r	c #3D3D3D",
  "s	c #999999",
  "t	c #EAEAEA",
  "u	c #313131",
  "v	c #C1C1C1",
  "w	c #D9D9D9",
  "x	c #4C4C4C",
  "y	c #494949",
  "z	c #E4E4E4",
  "A	c #919191",
  "B	c #080808",
  "C	c #797979",
  "D	c #FAFAFA",
  "E	c #E2E2E2",
  "F	c #F4F4F4",
  "G	c #CBCBCB",
  "H	c #0E0E0E",
  "I	c #444444",
  "J	c #6A6A6A",
  "K	c #565656",
  "L	c #3F3F3F",
  "M	c #B1B1B1",
  "N	c #F3F3F3",
  "O	c #EEEEEE",
  "P	c #5F5F5F",
  "Q	c #F8F8F8",
  "R	c #ADADAD",
  "S	c #525252",
  "T	c #1B1B1B",
  "U	c #050505",
  "V	c #0B0B0B",
  "W	c #242424",
  "X	c #616161",
  "Y	c #C5C5C5",
  "                ",
  "                ",
  "                ",
  "                ",
  "     .+@#$%%&*  ",
  "   =-;>>>>>>>,  ",
  "  ')>>>>>>>>>,  ",
  "  !>>>>~{,]^/(  ",
  " _>>>:<[        ",
  " }>>>|          ",
  "1>>>2           ",
  "3>>>45-6789<0   ",
  "a>>>bc>>>>>>de  ",
  "f>>>#>>>>>>>>7g ",
  "h>>>>>ijkl>>>>] ",
  "m>>>>n   op>>>$ ",
  "q>>>r     s>>>>t",
  "u>>>]     v>>>>w",
  "x>>>y     _>>>>z",
  "A>>>Bz    C>>>BD",
  "E~>>>yF  GH>>>I ",
  " J>>>>mKL%>>>>M ",
  " N9>>>>>>>>>>/  ",
  "  OI>>>>>>>>PQ  ",
  "   =RSTUVWXY    ",
  "                ",
  "                ",
  "                ",
  "                ",
  "                "};
