/* XPM */
static char *seven_xpm[] = {
  "17 30 47 1",
  " 	c #FFFFFF",
  ".	c #CFCFCF",
  "+	c #000000",
  "@	c #D3D3D3",
  "#	c #D5D5D5",
  "$	c #D8D8D8",
  "%	c #2F2F2F",
  "&	c #0F0F0F",
  "*	c #212121",
  "=	c #FDFDFD",
  "-	c #F7F7F7",
  ";	c #161616",
  ">	c #919191",
  ",	c #949494",
  "'	c #101010",
  ")	c #F3F3F3",
  "!	c #FCFCFC",
  "~	c #757575",
  "{	c #A5A5A5",
  "]	c #040404",
  "^	c #E2E2E2",
  "/	c #2E2E2E",
  "(	c #595959",
  "_	c #B5B5B5",
  ":	c #CBCBCB",
  "<	c #3D3D3D",
  "[	c #C6C6C6",
  "}	c #AFAFAF",
  "|	c #4D4D4D",
  "1	c #242424",
  "2	c #010101",
  "3	c #5E5E5E",
  "4	c #111111",
  "5	c #F4F4F4",
  "6	c #050505",
  "7	c #787878",
  "8	c #6E6E6E",
  "9	c #E5E5E5",
  "0	c #ECECEC",
  "a	c #0A0A0A",
  "b	c #5C5C5C",
  "c	c #7E7E7E",
  "d	c #CECECE",
  "e	c #121212",
  "f	c #404040",
  "g	c #8F8F8F",
  "h	c #B2B2B2",
  "                 ",
  "                 ",
  "                 ",
  "                 ",
  ".+++++++++++++++@",
  ".+++++++++++++++@",
  ".+++++++++++++++#",
  "$%%%%%%%%%%&+++*=",
  "          -;+++> ",
  "          ,+++') ",
  "         !*+++~  ",
  "         {+++]^  ",
  "         /+++(   ",
  "        _++++:   ",
  "        <+++<    ",
  "       [++++}    ",
  "       |+++1=    ",
  "      #2+++,     ",
  "      3+++45     ",
  "     ^6+++7      ",
  "     8+++69      ",
  "    0a+++b       ",
  "    c++++d       ",
  "   5e+++f        ",
  "   g++++h        ",
  "                 ",
  "                 ",
  "                 ",
  "                 ",
  "                 "};
