/* XPM */
static char *eight_xpm[] = {
  "16 30 94 2",
  "  	c #FFFFFF",
  ". 	c #DADADA",
  "+ 	c #767676",
  "@ 	c #353535",
  "# 	c #101010",
  "$ 	c #040404",
  "% 	c #0E0E0E",
  "& 	c #2C2C2C",
  "* 	c #666666",
  "= 	c #C6C6C6",
  "- 	c #818181",
  "; 	c #050505",
  "> 	c #000000",
  ", 	c #5C5C5C",
  "' 	c #F7F7F7",
  ") 	c #848484",
  "! 	c #595959",
  "~ 	c #F2F2F2",
  "{ 	c #0A0A0A",
  "] 	c #131313",
  "^ 	c #7F7F7F",
  "/ 	c #A7A7A7",
  "( 	c #888888",
  "_ 	c #1C1C1C",
  ": 	c #D8D8D8",
  "< 	c #C4C4C4",
  "[ 	c #C3C3C3",
  "} 	c #E1E1E1",
  "| 	c #A2A2A2",
  "1 	c #CACACA",
  "2 	c #F6F6F6",
  "3 	c #1A1A1A",
  "4 	c #A8A8A8",
  "5 	c #090909",
  "6 	c #9E9E9E",
  "7 	c #010101",
  "8 	c #696969",
  "9 	c #F3F3F3",
  "0 	c #A0A0A0",
  "a 	c #0F0F0F",
  "b 	c #565656",
  "c 	c #F0F0F0",
  "d 	c #2E2E2E",
  "e 	c #373737",
  "f 	c #EFEFEF",
  "g 	c #505050",
  "h 	c #0B0B0B",
  "i 	c #F9F9F9",
  "j 	c #F5F5F5",
  "k 	c #7A7A7A",
  "l 	c #030303",
  "m 	c #828282",
  "n 	c #262626",
  "o 	c #2F2F2F",
  "p 	c #E0E0E0",
  "q 	c #1F1F1F",
  "r 	c #111111",
  "s 	c #939393",
  "t 	c #6C6C6C",
  "u 	c #EAEAEA",
  "v 	c #868686",
  "w 	c #161616",
  "x 	c #DCDCDC",
  "y 	c #C5C5C5",
  "z 	c #646464",
  "A 	c #929292",
  "B 	c #A1A1A1",
  "C 	c #0D0D0D",
  "D 	c #FDFDFD",
  "E 	c #181818",
  "F 	c #AFAFAF",
  "G 	c #CFCFCF",
  "H 	c #292929",
  "I 	c #525252",
  "J 	c #FEFEFE",
  "K 	c #707070",
  "L 	c #6E6E6E",
  "M 	c #8C8C8C",
  "N 	c #A4A4A4",
  "O 	c #909090",
  "P 	c #444444",
  "Q 	c #606060",
  "R 	c #E7E7E7",
  "S 	c #141414",
  "T 	c #E6E6E6",
  "U 	c #D6D6D6",
  "V 	c #363636",
  "W 	c #DDDDDD",
  "X 	c #FCFCFC",
  "Y 	c #ADADAD",
  "Z 	c #5B5B5B",
  "` 	c #282828",
  " .	c #5D5D5D",
  "..	c #B3B3B3",
  "                                ",
  "                                ",
  "                                ",
  "                                ",
  "      . + @ # $ % & * =         ",
  "    - ; > > > > > > > > , '     ",
  "  ) > > > > > > > > > > > !     ",
  "~ { > > > ] ^ / ( _ > > > > :   ",
  "< > > > > [       } $ > > > |   ",
  "1 > > > > 2         3 > > > 4   ",
  "~ 5 > > > 6       = > > > 7 .   ",
  "  8 > > > $ ) 9 0 a > > > b     ",
  "  c d > > > > ; > > > > e f     ",
  "    c g > > > > > > h ^ i       ",
  "    j k l > > > > > h m i       ",
  "  . n > > > > > > > > > o p     ",
  "9 q > > > r s p t l > > > q u   ",
  "v > > > w x       y r > > > z   ",
  "e > > > A           B > > > C D ",
  "E > > > F           G > > > > ~ ",
  "H > > > I J         K > > > C   ",
  "L > > > > e M N O P > > > > Q   ",
  "R S > > > > > > > > > > > E T   ",
  "  U & > > > > > > > > > V W     ",
  "    X Y Z H C l C `  ...J       ",
  "                                ",
  "                                ",
  "                                ",
  "                                ",
  "                                "};
