/* XPM */
static char *nine_xpm[] = {
  "17 30 85 1",
  " 	c #FFFFFF",
  ".	c #D8D8D8",
  "+	c #6D6D6D",
  "@	c #2C2C2C",
  "#	c #0E0E0E",
  "$	c #050505",
  "%	c #181818",
  "&	c #4B4B4B",
  "*	c #A2A2A2",
  "=	c #FBFBFB",
  "-	c #FEFEFE",
  ";	c #808080",
  ">	c #020202",
  ",	c #000000",
  "'	c #323232",
  ")	c #E3E3E3",
  "!	c #7E7E7E",
  "~	c #E4E4E4",
  "{	c #D5D5D5",
  "]	c #333333",
  "^	c #525252",
  "/	c #1E1E1E",
  "(	c #4D4D4D",
  "_	c #696969",
  ":	c #AFAFAF",
  "<	c #F9F9F9",
  "[	c #5D5D5D",
  "}	c #C4C4C4",
  "|	c #272727",
  "1	c #555555",
  "2	c #F3F3F3",
  "3	c #161616",
  "4	c #717171",
  "5	c #070707",
  "6	c #8F8F8F",
  "7	c #6B6B6B",
  "8	c #2A2A2A",
  "9	c #FCFCFC",
  "0	c #9D9D9D",
  "a	c #8C8C8C",
  "b	c #0C0C0C",
  "c	c #767676",
  "d	c #606060",
  "e	c #F7F7F7",
  "f	c #393939",
  "g	c #131313",
  "h	c #ABABAB",
  "i	c #F4F4F4",
  "j	c #898989",
  "k	c #676767",
  "l	c #7A7A7A",
  "m	c #454545",
  "n	c #030303",
  "o	c #F0F0F0",
  "p	c #1C1C1C",
  "q	c #CDCDCD",
  "r	c #282828",
  "s	c #BEBEBE",
  "t	c #3A3A3A",
  "u	c #EAEAEA",
  "v	c #777777",
  "w	c #090909",
  "x	c #0B0B0B",
  "y	c #7B7B7B",
  "z	c #A7A7A7",
  "A	c #6F6F6F",
  "B	c #595959",
  "C	c #B1B1B1",
  "D	c #B6B6B6",
  "E	c #1A1A1A",
  "F	c #868686",
  "G	c #949494",
  "H	c #585858",
  "I	c #707070",
  "J	c #5F5F5F",
  "K	c #3C3C3C",
  "L	c #060606",
  "M	c #3E3E3E",
  "N	c #FDFDFD",
  "O	c #EBEBEB",
  "P	c #787878",
  "Q	c #8E8E8E",
  "R	c #141414",
  "S	c #565656",
  "T	c #989898",
  "                 ",
  "                 ",
  "                 ",
  "                 ",
  "    .+@#$%&*=    ",
  "  -;>,,,,,,,')   ",
  "  !,,,,,,,,,,%~  ",
  " {>,,,,]^/,,,,(  ",
  " _,,,>:  <[,,,,} ",
  " |,,,1    23,,,4 ",
  " 5,,,6     7,,,8 ",
  "9,,,,0     a,,,# ",
  " b,,,c     d,,,,e",
  " f,,,g~   h>,,,,i",
  " j,,,,gklm,,,,,n ",
  " op,,,,,,,,@,,,g ",
  "  q3,,,,,,rs,,,t ",
  "   uv8wx8y2z,,,A ",
  "           B,,,C ",
  "          Dn,,E9 ",
  "        iFw,,,6  ",
  "  GHIIJKL,,,,MN  ",
  "  v,,,,,,,,,tO   ",
  "  v,,,,,,,xPe    ",
  "  Qg$nR|STO      ",
  "                 ",
  "                 ",
  "                 ",
  "                 ",
  "                 "};
