/* XPM */
static char *ball_xpm[] = {
  "25 25 495 2",
  "  	c #818181",
  ". 	c #F5B748",
  "+ 	c #F6B845",
  "@ 	c #F7B944",
  "# 	c #F7B841",
  "$ 	c #F9B941",
  "% 	c #F8B841",
  "& 	c #F5B641",
  "* 	c #F4B64F",
  "= 	c #494338",
  "- 	c #F2B751",
  "; 	c #F5B644",
  "> 	c #F8B63D",
  ", 	c #FAB737",
  "' 	c #FAB835",
  ") 	c #FBB934",
  "! 	c #FCB834",
  "~ 	c #FBB835",
  "{ 	c #FAB733",
  "] 	c #F9B639",
  "^ 	c #F7B63F",
  "/ 	c #F3B547",
  "( 	c #F0B65A",
  "_ 	c #828282",
  ": 	c #E9B662",
  "< 	c #F2B44A",
  "[ 	c #F5B33B",
  "} 	c #F9B637",
  "| 	c #FAB632",
  "1 	c #FBB730",
  "2 	c #FCB82F",
  "3 	c #FCB831",
  "4 	c #FDB930",
  "5 	c #FBB631",
  "6 	c #F9B42F",
  "7 	c #F7B234",
  "8 	c #F4B13E",
  "9 	c #EFB24C",
  "0 	c #EEB65F",
  "a 	c #EDAF4D",
  "b 	c #F0AF42",
  "c 	c #F5B138",
  "d 	c #F6B130",
  "e 	c #F9B22B",
  "f 	c #FBB52B",
  "g 	c #FCB62E",
  "h 	c #FDB82D",
  "i 	c #FDB92E",
  "j 	c #FDB82E",
  "k 	c #FCB72F",
  "l 	c #FBB62C",
  "m 	c #FBB42E",
  "n 	c #F8B02D",
  "o 	c #F5AD2D",
  "p 	c #F2AC34",
  "q 	c #EDAD47",
  "r 	c #E8AF5A",
  "s 	c #EAAE4E",
  "t 	c #EEAD42",
  "u 	c #F3AC33",
  "v 	c #F5AD2C",
  "w 	c #F7AF28",
  "x 	c #F9B128",
  "y 	c #FAB228",
  "z 	c #FCB429",
  "A 	c #FDB62B",
  "B 	c #FDB72D",
  "C 	c #FEB72D",
  "D 	c #FDB82F",
  "E 	c #FCB62D",
  "F 	c #FCB52E",
  "G 	c #FAB32E",
  "H 	c #F8B02A",
  "I 	c #F6AC2A",
  "J 	c #F3AA2C",
  "K 	c #F0A834",
  "L 	c #ECA742",
  "M 	c #E6A652",
  "N 	c #EAA947",
  "O 	c #EEA732",
  "P 	c #F3A92C",
  "Q 	c #F3AA27",
  "R 	c #F7AE28",
  "S 	c #F8AF26",
  "T 	c #FAB127",
  "U 	c #FBB329",
  "V 	c #FCB42A",
  "W 	c #FBB42C",
  "X 	c #FCB52F",
  "Y 	c #FBB32A",
  "Z 	c #FBB42D",
  "` 	c #F8B12B",
  " .	c #F6AD2A",
  "..	c #F5AB28",
  "+.	c #F3A829",
  "@.	c #F0A52A",
  "#.	c #ECA436",
  "$.	c #E6A64D",
  "%.	c #E4A85B",
  "&.	c #EBA338",
  "*.	c #EFA52B",
  "=.	c #F2A628",
  "-.	c #F2A826",
  ";.	c #F6AB24",
  ">.	c #F8AE27",
  ",.	c #F8AE24",
  "'.	c #F9B027",
  ").	c #FAB029",
  "!.	c #FAB028",
  "~.	c #FAB128",
  "{.	c #FBB12B",
  "].	c #FAAF27",
  "^.	c #F9AF28",
  "/.	c #F7AC28",
  "(.	c #F5AB27",
  "_.	c #F4A928",
  ":.	c #F1A528",
  "<.	c #EFA126",
  "[.	c #EB9F2C",
  "}.	c #E79D3A",
  "|.	c #E1A255",
  "1.	c #E4A146",
  "2.	c #EA9F2C",
  "3.	c #EEA027",
  "4.	c #F1A324",
  "5.	c #F3A525",
  "6.	c #F4A825",
  "7.	c #F5A924",
  "8.	c #F8AB23",
  "9.	c #F8AC24",
  "0.	c #F9AD25",
  "a.	c #F9AD27",
  "b.	c #F8AE28",
  "c.	c #F8AC26",
  "d.	c #F7AA25",
  "e.	c #F5A824",
  "f.	c #F3A524",
  "g.	c #F2A324",
  "h.	c #F0A021",
  "i.	c #EE9D22",
  "j.	c #EB9A27",
  "k.	c #E69930",
  "l.	c #E19E53",
  "m.	c #DDA354",
  "n.	c #E59C34",
  "o.	c #EA9B25",
  "p.	c #EC9C21",
  "q.	c #EF9F21",
  "r.	c #F0A020",
  "s.	c #F1A223",
  "t.	c #F3A41F",
  "u.	c #F5A521",
  "v.	c #F6A721",
  "w.	c #F5A721",
  "x.	c #F6A621",
  "y.	c #F6A623",
  "z.	c #F6A622",
  "A.	c #F4A420",
  "B.	c #F4A320",
  "C.	c #F3A11F",
  "D.	c #F19F1F",
  "E.	c #F09E1F",
  "F.	c #EE9C1F",
  "G.	c #EC9A1F",
  "H.	c #EA9622",
  "I.	c #E69529",
  "J.	c #DF9436",
  "K.	c #DFAB74",
  "L.	c #DD9A43",
  "M.	c #E3972E",
  "N.	c #E89722",
  "O.	c #EA9920",
  "P.	c #F09F1F",
  "Q.	c #F19F1D",
  "R.	c #F1A01E",
  "S.	c #F2A11F",
  "T.	c #F2A11E",
  "U.	c #F1A021",
  "V.	c #F1A020",
  "W.	c #F09E1C",
  "X.	c #F09D1B",
  "Y.	c #EF9C19",
  "Z.	c #ED9A1B",
  "`.	c #ED9A1D",
  " +	c #EB961A",
  ".+	c #E8931A",
  "++	c #E8911D",
  "@+	c #E38E21",
  "#+	c #DF8E2D",
  "$+	c #D99648",
  "%+	c #DC943A",
  "&+	c #E29229",
  "*+	c #E5901C",
  "=+	c #E7931D",
  "-+	c #E9961D",
  ";+	c #EB961B",
  ">+	c #EC981B",
  ",+	c #EC991B",
  "'+	c #ED9819",
  ")+	c #EE9A1B",
  "!+	c #EE9B1A",
  "~+	c #ED9A18",
  "{+	c #EC9718",
  "]+	c #EC9616",
  "^+	c #EC9618",
  "/+	c #EB9316",
  "(+	c #EA9115",
  "_+	c #E99118",
  ":+	c #E78F19",
  "<+	c #E48D1C",
  "[+	c #E1891F",
  "}+	c #DE8929",
  "|+	c #D68D3B",
  "1+	c #D98F39",
  "2+	c #E08C26",
  "3+	c #E28C1C",
  "4+	c #E58E1B",
  "5+	c #E78E18",
  "6+	c #E89016",
  "7+	c #E99116",
  "8+	c #EA9317",
  "9+	c #EA9215",
  "0+	c #EB9212",
  "a+	c #EB9313",
  "b+	c #EB9114",
  "c+	c #EA9112",
  "d+	c #EB9116",
  "e+	c #EA8F14",
  "f+	c #EA8E12",
  "g+	c #E98C11",
  "h+	c #E78A12",
  "i+	c #E68914",
  "j+	c #E38716",
  "k+	c #E38618",
  "l+	c #DE841B",
  "m+	c #DB8425",
  "n+	c #D58533",
  "o+	c #D68A36",
  "p+	c #DD8723",
  "q+	c #E0871B",
  "r+	c #E28718",
  "s+	c #E48816",
  "t+	c #E58A17",
  "u+	c #E68A13",
  "v+	c #E68A12",
  "w+	c #E78B11",
  "x+	c #E88B10",
  "y+	c #E78A0F",
  "z+	c #E88A0F",
  "A+	c #E8880F",
  "B+	c #E7890F",
  "C+	c #E6880F",
  "D+	c #E68610",
  "E+	c #E48611",
  "F+	c #E38412",
  "G+	c #E28211",
  "H+	c #DF8012",
  "I+	c #DD7F16",
  "J+	c #DA7D18",
  "K+	c #D77D24",
  "L+	c #D07F30",
  "M+	c #D38939",
  "N+	c #D88224",
  "O+	c #DC8019",
  "P+	c #DE8016",
  "Q+	c #E08113",
  "R+	c #E28312",
  "S+	c #E38312",
  "T+	c #E38311",
  "U+	c #E4830E",
  "V+	c #E4840F",
  "W+	c #E4830C",
  "X+	c #E5830D",
  "Y+	c #E4820D",
  "Z+	c #E4820F",
  "`+	c #E37F0B",
  " @	c #E3800D",
  ".@	c #E17F0E",
  "+@	c #E17E0F",
  "@@	c #DF7B0F",
  "#@	c #DD7B0F",
  "$@	c #DB7913",
  "%@	c #D97816",
  "&@	c #D57517",
  "*@	c #D37623",
  "=@	c #CD7A31",
  "-@	c #CF843A",
  ";@	c #D57D24",
  ">@	c #D77B1A",
  ",@	c #D97A13",
  "'@	c #DB7911",
  ")@	c #DD7C12",
  "!@	c #DF7B0E",
  "~@	c #DE7B0E",
  "{@	c #DF790B",
  "]@	c #DF7B0B",
  "^@	c #DE7A0A",
  "/@	c #DE790D",
  "(@	c #DC760D",
  "_@	c #DD770B",
  ":@	c #DD760A",
  "<@	c #DA740C",
  "[@	c #DA740E",
  "}@	c #D8720E",
  "|@	c #D67010",
  "1@	c #D36F13",
  "2@	c #D06E18",
  "3@	c #CC6F22",
  "4@	c #C97634",
  "5@	c #CD813A",
  "6@	c #D07729",
  "7@	c #D3741A",
  "8@	c #D57313",
  "9@	c #D6720E",
  "0@	c #D7720E",
  "a@	c #D8720C",
  "b@	c #D9720C",
  "c@	c #D97107",
  "d@	c #D97106",
  "e@	c #DA7108",
  "f@	c #D9710B",
  "g@	c #D96F09",
  "h@	c #D86E0A",
  "i@	c #D86D08",
  "j@	c #D86D09",
  "k@	c #D66C0A",
  "l@	c #D66A08",
  "m@	c #D56908",
  "n@	c #D3680A",
  "o@	c #D0670D",
  "p@	c #CE6711",
  "q@	c #CC6718",
  "r@	c #C96B24",
  "s@	c #C57232",
  "t@	c #CB7F3E",
  "u@	c #CC762C",
  "v@	c #CF701B",
  "w@	c #D06D13",
  "x@	c #D26B0F",
  "y@	c #D36A0C",
  "z@	c #D46A0C",
  "A@	c #D46A08",
  "B@	c #D46908",
  "C@	c #D46805",
  "D@	c #D66706",
  "E@	c #D46806",
  "F@	c #D36404",
  "G@	c #D46406",
  "H@	c #D36406",
  "I@	c #D26305",
  "J@	c #D26205",
  "K@	c #D06207",
  "L@	c #CF6108",
  "M@	c #CE6109",
  "N@	c #CC5F0B",
  "O@	c #C9610F",
  "P@	c #C76118",
  "Q@	c #C46625",
  "R@	c #BD7131",
  "S@	c #C77631",
  "T@	c #CB6C1F",
  "U@	c #CC6614",
  "V@	c #CD6511",
  "W@	c #CF640C",
  "X@	c #CE6209",
  "Y@	c #D06108",
  "Z@	c #CF6106",
  "`@	c #D05F04",
  " #	c #CF5F05",
  ".#	c #CE5D05",
  "+#	c #CE5E05",
  "@#	c #CD5D05",
  "##	c #CD5C06",
  "$#	c #CB5B05",
  "%#	c #CB5A06",
  "&#	c #C95906",
  "*#	c #C85906",
  "=#	c #C65A0B",
  "-#	c #C45B11",
  ";#	c #C35E1B",
  ">#	c #C06325",
  ",#	c #C57B3B",
  "'#	c #C86C28",
  ")#	c #C86518",
  "!#	c #C96010",
  "~#	c #CA5E0D",
  "{#	c #CA5D09",
  "]#	c #CB5C09",
  "^#	c #CA5905",
  "/#	c #CA5804",
  "(#	c #CA5704",
  "_#	c #C95704",
  ":#	c #C95604",
  "<#	c #CA5705",
  "[#	c #C85504",
  "}#	c #C75404",
  "|#	c #C65304",
  "1#	c #C55404",
  "2#	c #C45408",
  "3#	c #C3540A",
  "4#	c #C25713",
  "5#	c #BE5D1E",
  "6#	c #BF6529",
  "7#	c #C46F33",
  "8#	c #C66521",
  "9#	c #C65E14",
  "0#	c #C55A10",
  "a#	c #C7590B",
  "b#	c #C65608",
  "c#	c #C75405",
  "d#	c #C75303",
  "e#	c #C65204",
  "f#	c #C55104",
  "g#	c #C65104",
  "h#	c #C54F03",
  "i#	c #C54F04",
  "j#	c #C44E04",
  "k#	c #C34E05",
  "l#	c #C24E06",
  "m#	c #C14F0A",
  "n#	c #C1520E",
  "o#	c #BE5618",
  "p#	c #BC5C22",
  "q#	c #BB763C",
  "r#	c #C16829",
  "s#	c #C35F1B",
  "t#	c #C15812",
  "u#	c #C3540D",
  "v#	c #C35209",
  "w#	c #C35006",
  "x#	c #C24E05",
  "y#	c #C24B05",
  "z#	c #C24B04",
  "A#	c #C14A04",
  "B#	c #C04903",
  "C#	c #C04904",
  "D#	c #BF4804",
  "E#	c #BF4A05",
  "F#	c #BE4A05",
  "G#	c #BD4B08",
  "H#	c #BD4D0C",
  "I#	c #BD5214",
  "J#	c #BC591E",
  "K#	c #BE6B33",
  "L#	c #C06327",
  "M#	c #BF5B1A",
  "N#	c #BE5410",
  "O#	c #C04F0C",
  "P#	c #BF4D09",
  "Q#	c #BF4B06",
  "R#	c #BC4805",
  "S#	c #BD4806",
  "T#	c #BC4706",
  "U#	c #BC4505",
  "V#	c #BD4606",
  "W#	c #BC4605",
  "X#	c #BB4706",
  "Y#	c #BB4908",
  "Z#	c #BC4C0C",
  "`#	c #BC5013",
  " $	c #BD561B",
  ".$	c #BA6C39",
  "+$	c #BA622C",
  "@$	c #BE5819",
  "#$	c #BE5312",
  "$$	c #BD4E0E",
  "%$	c #BC4A09",
  "&$	c #BB4808",
  "*$	c #BB4708",
  "=$	c #BB4606",
  "-$	c #BA4706",
  ";$	c #BC4708",
  ">$	c #BC4A0A",
  ",$	c #BD4D0E",
  "'$	c #BE5213",
  ")$	c #C0561B",
  "!$	c #B56231",
  "~$	c #BA5B26",
  "{$	c #BD5318",
  "]$	c #BE5012",
  "^$	c #BD4D0F",
  "/$	c #BC4B0D",
  "($	c #BC4B0C",
  "_$	c #BD4E10",
  ":$	c #BD5215",
  "<$	c #BF5519",
  "[$	c #BF581F",
  "}$	c #A7765C",
  "|$	c #B25C2D",
  "1$	c #BD591F",
  "2$	c #BF5518",
  "3$	c #C05316",
  "4$	c #BF5315",
  "5$	c #C05418",
  "6$	c #BF5619",
  "                . + @ # $ % & . *                 ",
  "          = - ; > , ' ) ! ~ { ] ^ / ( _           ",
  "        : < [ } | 1 2 3 4 2 1 5 6 7 8 9 0         ",
  "      a b c d e f g h i h j k l m n o p q r       ",
  "    s t u v w x y z A B C D E F G H I J K L M     ",
  "    N O P Q R S T U V W V X Y Z `  ...+.@.#.$.    ",
  "  %.&.*.=.-.;.>.,.'.).!.~.{.].^./.(._.:.<.[.}.|.  ",
  "  1.2.3.4.5.6.7.8.9.0.a.b.c.c.d.e.f.g.h.i.j.k.l.  ",
  "m.n.o.p.q.r.s.t.u.v.w.x.y.z.A.B.C.D.E.F.G.H.I.J.K.",
  "L.M.N.O.G.F.E.P.Q.R.S.T.U.V.W.X.Y.Z.`. +.+++@+#+$+",
  "%+&+*+=+-+;+>+,+'+)+!+~+Z.Z.{+]+^+/+(+_+:+<+[+}+|+",
  "1+2+3+4+5+6+7+8+9+0+a+b+c+b+d+e+f+g+h+i+j+k+l+m+n+",
  "o+p+q+r+s+t+u+v+w+x+y+y+z+A+B+C+D+E+F+G+H+I+J+K+L+",
  "M+N+O+P+Q+R+S+T+U+V+W+X+Y+Z+`+ @.@+@@@#@$@%@&@*@=@",
  "-@;@>@,@'@)@!@~@{@]@^@{@/@(@_@:@:@<@[@}@|@1@2@3@4@",
  "5@6@7@8@9@0@a@b@c@d@e@f@g@h@i@j@k@l@m@n@o@p@q@r@s@",
  "t@u@v@w@x@y@z@A@B@C@D@E@F@G@H@I@J@K@L@M@N@O@P@Q@R@",
  "  S@T@U@V@W@X@Y@Z@`@`@ #.#+#@###$#%#&#*#=#-#;#>#  ",
  "  ,#'#)#!#~#{#]#^#/#(#_#:#<#:#[#}#|#1#2#3#4#5#6#  ",
  "    7#8#9#0#a#b#c#d#e#f#g#h#i#j#k#l#l#m#n#o#p#    ",
  "    q#r#s#t#u#v#w#x#y#z#A#B#C#D#E#F#G#H#I#J#      ",
  "      K#L#M#N#O#P#Q#R#S#T#U#V#W#X#Y#Z#`# $        ",
  "        .$+$@$#$$$%$Y#&$*$=$-$;$>$,$'$)$          ",
  "            !$~${$]$^$/$($($($_$:$<$[$            ",
  "              }$|$1$<$2$3$4$5$6$                  "};
