/* XPM */
static char *cursor_xpm[] = {
  "10 15 25 1",
  " 	g #000000",
  ".	g #5E5E5E",
  "+	g #A6A6A6",
  "@	g #CCCCCC",
  "#	g #FFFFFF",
  "$	g #CBCBCB",
  "%	g #CACACA",
  "&	g #C8C8C8",
  "*	g #C6C6C6",
  "=	g #E7E7E7",
  "-	g #AAAAAA",
  ";	g #595959",
  ">	g #F1F1F1",
  ",	g #B1B1B1",
  "'	g #FAFAFA",
  ")	g #414141",
  "!	g #676767",
  "~	g #000000",
  "{	g #F6F6F6",
  "]	g #ACACAC",
  "^	g #8D8D8D",
  "/	g #BDBDBD",
  "(	g #ECECEC",
  "_	g #575757",
  ":	g #525252",
  "          ",
  ".         ",
  "+@        ",
  "+#@       ",
  "+##$      ",
  "+###$     ",
  "+####%    ",
  "+#####&   ",
  "+######*  ",
  "+###=---; ",
  "+#>,')    ",
  "+>!~{]    ",
  "^!  /(~   ",
  "~   _(:   ",
  "     ~    "};
