/* XPM */
static char *x_xpm[] = {
  "18 30 69 1",
  " 	c #FFFFFF",
  ".	c #BFBFBF",
  "+	c #010101",
  "@	c #000000",
  "#	c #333333",
  "$	c #FCFCFC",
  "%	c #8D8D8D",
  "&	c #636363",
  "*	c #6E6E6E",
  "=	c #8E8E8E",
  "-	c #E0E0E0",
  ";	c #0B0B0B",
  ">	c #1F1F1F",
  ",	c #F2F2F2",
  "'	c #F5F5F5",
  ")	c #252525",
  "!	c #E1E1E1",
  "~	c #484848",
  "{	c #C5C5C5",
  "]	c #020202",
  "^	c #4B4B4B",
  "/	c #A5A5A5",
  "(	c #707070",
  "_	c #747474",
  ":	c #979797",
  "<	c #151515",
  "[	c #272727",
  "}	c #F6F6F6",
  "|	c #F7F7F7",
  "1	c #292929",
  "2	c #030303",
  "3	c #C9C9C9",
  "4	c #CACACA",
  "5	c #7C7C7C",
  "6	c #757575",
  "7	c #2B2B2B",
  "8	c #FAFAFA",
  "9	c #FEFEFE",
  "0	c #404040",
  "a	c #0E0E0E",
  "b	c #8F8F8F",
  "c	c #414141",
  "d	c #D8D8D8",
  "e	c #090909",
  "f	c #1C1C1C",
  "g	c #909090",
  "h	c #373737",
  "i	c #0A0A0A",
  "j	c #DEDEDE",
  "k	c #D7D7D7",
  "l	c #858585",
  "m	c #DADADA",
  "n	c #080808",
  "o	c #353535",
  "p	c #FBFBFB",
  "q	c #D1D1D1",
  "r	c #060606",
  "s	c #828282",
  "t	c #F9F9F9",
  "u	c #2F2F2F",
  "v	c #040404",
  "w	c #CFCFCF",
  "x	c #2D2D2D",
  "y	c #050505",
  "z	c #CECECE",
  "A	c #7A7A7A",
  "B	c #767676",
  "C	c #C8C8C8",
  "D	c #F8F8F8",
  "                  ",
  "                  ",
  "                  ",
  "                  ",
  "                  ",
  "                  ",
  "                  ",
  ".+@@@#$    %@@@@& ",
  " *@@@@=   -;@@@>, ",
  " ')@@@;!  ~@@@+.  ",
  "  {]@@@^ /@@@@(   ",
  "   _@@@@:<@@@[}   ",
  "   |1@@@@@@@23    ",
  "    42@@@@@@5     ",
  "     6@@@@@78     ",
  "    90@@@@@a-     ",
  "    b@@@@@@@c9    ",
  "   de@@@f@@@@g    ",
  "  $h@@@ijc@@@ek   ",
  "  l@@@@% mn@@@op  ",
  " qr@@@#$  l@@@@s  ",
  "tu@@@vw   8x@@@yz ",
  "A@@@@B     C]@@@7D",
  "                  ",
  "                  ",
  "                  ",
  "                  ",
  "                  ",
  "                  ",
  "                  "};
